<svg width="10" height="11" viewBox="0 0 10 11" fill="none" xmlns="http://www.w3.org/2000/svg">
<g clip-path="url(#clip0_196_610)">
<path d="M4.4707 1.0293C4.59375 0.919922 4.70996 0.919922 4.81934 1.0293L9.10547 5.33594C9.22852 5.44531 9.22852 5.55469 9.10547 5.66406L4.81934 9.9707C4.70996 10.0801 4.59375 10.0801 4.4707 9.9707L4.06055 9.56055C4.01953 9.51953 3.99902 9.46484 3.99902 9.39648C3.99902 9.32813 4.01953 9.2666 4.06055 9.21191L7.23926 6.0332H0.246094C0.0820312 6.0332 0 5.95117 0 5.78711V5.21289C0 5.04883 0.0820312 4.9668 0.246094 4.9668H7.23926L4.06055 1.78809C3.95117 1.66504 3.95117 1.54883 4.06055 1.43945L4.4707 1.0293Z" fill="black"/>
</g>
<defs>
<clipPath id="clip0_196_610">
<rect width="9.1875" height="10.5" fill="white" transform="matrix(1 0 0 -1 0 10.75)"/>
</clipPath>
</defs>
</svg>
