<svg width="12" height="13" viewBox="0 0 12 13" fill="none" xmlns="http://www.w3.org/2000/svg">
<path d="M10.875 2C11.1875 2 11.4531 2.10938 11.6719 2.32812C11.8906 2.54687 12 2.8125 12 3.125V9.875C12 10.1875 11.8906 10.4531 11.6719 10.6719C11.4531 10.8906 11.1875 11 10.875 11H1.125C0.8125 11 0.546875 10.8906 0.328125 10.6719C0.109375 10.4531 0 10.1875 0 9.875V3.125C0 2.8125 0.109375 2.54687 0.328125 2.32812C0.546875 2.10938 0.8125 2 1.125 2H10.875ZM10.875 3.125H1.125V4.08594C1.67188 4.52344 2.72656 5.35156 4.28906 6.57031C4.28906 6.58594 4.39844 6.68359 4.61719 6.86328C4.83594 7.04297 5 7.16797 5.10938 7.23828C5.21875 7.30859 5.36328 7.39062 5.54297 7.48438C5.72266 7.57812 5.875 7.625 6 7.625C6.125 7.625 6.27734 7.57812 6.45703 7.48438C6.63672 7.39062 6.78125 7.30859 6.89062 7.23828C7 7.16797 7.16406 7.04297 7.38281 6.86328C7.60156 6.68359 7.71094 6.58594 7.71094 6.57031C9.27344 5.35156 10.3281 4.52344 10.875 4.08594V3.125ZM1.125 9.875H10.875V5.51562C10.3281 5.95312 9.50781 6.60156 8.41406 7.46094C8.38281 7.47656 8.26953 7.57031 8.07422 7.74219C7.87891 7.91406 7.72656 8.03906 7.61719 8.11719C7.50781 8.19531 7.35156 8.29297 7.14844 8.41016C6.94531 8.52734 6.75 8.61328 6.5625 8.66797C6.375 8.72266 6.1875 8.75 6 8.75C5.8125 8.75 5.62109 8.72266 5.42578 8.66797C5.23047 8.61328 5.03516 8.52344 4.83984 8.39844C4.64453 8.27344 4.49219 8.17187 4.38281 8.09375C4.27344 8.01563 4.12109 7.89453 3.92578 7.73047C3.73047 7.56641 3.61719 7.47656 3.58594 7.46094C2.49219 6.60156 1.67188 5.95312 1.125 5.51562V9.875Z" fill="black"/>
</svg>
