<svg width="100" height="100" viewBox="0 0 100 100" fill="none" xmlns="http://www.w3.org/2000/svg">
<g opacity="0.8">
<g clip-path="url(#clip0_154_579)">
<path d="M75.3003 51.7335L56.4336 70.5669L47.0003 61.1335L42.3003 65.8669L56.4336 80.0002L80.0003 56.4335L75.3003 51.7335Z" fill="black"/>
<path d="M56.6672 28.1819V23.3334H30.0005V28.1819H38.4853C41.6417 28.1819 44.3059 30.2134 45.3096 33.0303H30.0005V37.8788H45.3096C44.812 39.2927 43.8888 40.5179 42.6669 41.386C41.445 42.2542 39.9842 42.7227 38.4853 42.7273H30.0005V48.5794L41.2635 59.8425H48.1193L35.8526 47.5758H38.4853C41.278 47.5721 43.9839 46.6055 46.1469 44.8391C48.3099 43.0726 49.7976 40.6144 50.3593 37.8788H56.6672V33.0303H50.3593C49.9877 31.266 49.2219 29.6085 48.1193 28.1819H56.6672Z" fill="black"/>
</g>
</g>
<defs>
<clipPath id="clip0_154_579">
<rect width="80" height="80" fill="white" transform="translate(10 10)"/>
</clipPath>
</defs>
</svg>
