<svg width="100" height="100" viewBox="0 0 100 100" fill="none" xmlns="http://www.w3.org/2000/svg">
<g opacity="0.8">
<path d="M32.6471 12.8225L33.9654 15.8204C36.6779 21.9814 38.3185 28.315 39.0534 34.6193C31.2393 35.2487 23.4715 35.2678 16.4459 34.8781L13.1353 34.6921L15.2349 37.256C21.8337 45.3185 29.8618 50.1464 38.4284 54.5853C36.532 65.4703 32.2212 75.5384 26.3531 83.5403L24.3756 86.2354L27.6959 85.8546C43.2824 84.0645 55.4928 77.8631 64.6784 69.2821C69.844 72.956 74.9898 77.4087 80.0054 83.1837L82.364 85.8984L82.564 82.3093C83.1199 72.3401 81.2156 62.2921 77.3054 53.0078C83.2054 42.4379 86.3656 30.629 87.2371 19.4678L87.5496 15.4784L84.7418 18.3253C79.172 23.9784 71.2512 27.9009 62.3249 30.5321C54.9913 23.0728 45.9753 17.2009 35.7578 13.8428L32.6473 12.8221L32.6471 12.8225ZM45.5768 23.0275C47.1971 23.0303 49.2623 23.7906 51.7193 25.2884C54.3056 27.1579 56.7495 29.214 59.0338 31.4306C53.5549 32.8206 47.7796 33.7559 41.9732 34.3409C41.8118 32.9557 41.6056 31.5675 41.3579 30.1809C41.3574 30.1778 41.3585 30.1743 41.3579 30.1712C41.2242 25.3775 42.712 23.0228 45.5767 23.0275H45.5768ZM74.1803 30.3225C78.9709 30.2314 81.5221 33.1048 80.2545 39.126C79.0388 42.7193 77.5545 46.2554 75.7867 49.6682C72.8782 43.6467 69.1132 38.0089 64.6248 32.9886C66.6276 32.3542 68.581 31.6471 70.4743 30.8692C71.8188 30.526 73.0607 30.3437 74.1806 30.3223L74.1803 30.3225ZM61.4751 33.9112C66.6824 39.5096 70.9295 45.9717 74.0192 52.8909C72.6079 55.2979 71.0493 57.6279 69.3317 59.8539C68.1978 61.3226 66.987 62.7414 65.7132 64.1117C62.4154 63.1582 58.9648 61.7698 56.2113 60.5179C56.1998 60.5126 56.1888 60.5085 56.177 60.5032C53.0751 58.7603 50.0113 57.1837 47.017 55.6739C45.1928 54.7542 43.4482 53.8623 41.6849 52.964C42.3654 48.2596 42.6021 43.4265 42.3296 38.5448C46.3546 37.4276 50.8321 36.4698 54.566 35.537C56.9054 35.0698 59.2145 34.5323 61.4749 33.911L61.4751 33.9112ZM55.2496 39.0139C55.1173 39.0135 54.9871 39.0167 54.859 39.0237C53.8346 39.0804 52.949 39.3706 52.232 39.8245C50.7981 40.7323 49.864 42.3443 49.864 44.8343C49.864 49.814 54.2634 55.8968 59.3953 57.7737C61.9612 58.7123 64.0549 58.4667 65.489 57.5589C66.9231 56.6511 67.8571 55.039 67.8571 52.549C67.8571 47.5693 63.4628 41.4917 58.331 39.6146C57.2084 39.2037 56.1763 39.0165 55.2498 39.0139H55.2496ZM39.434 39.4095C39.6168 43.511 39.424 47.5735 38.9068 51.5479C37.6123 50.8689 36.3359 50.1836 35.0834 49.4776C27.9206 44.7685 32.2599 41.7307 39.4342 39.4093L39.434 39.4095ZM41.1676 55.9767C42.6773 56.7407 44.1653 57.5079 45.6988 58.2814C51.1151 61.0126 56.6668 63.9101 62.2123 67.5978C61.1632 68.5587 60.0713 69.4837 58.9409 70.3759C48.5396 75.4493 40.8896 70.8087 40.4643 59.3165C40.7231 58.2123 40.9574 57.0998 41.1676 55.9767ZM75.4057 56.2157C76.0054 57.7751 76.5421 59.3539 77.022 60.9475C77.5007 65.2275 73.7451 65.8264 68.936 64.9025C69.8776 63.8418 70.7807 62.7556 71.641 61.6407C72.9926 59.8896 74.2392 58.072 75.4057 56.2157Z" fill="black"/>
</g>
</svg>
