<svg width="100" height="100" viewBox="0 0 100 100" fill="none" xmlns="http://www.w3.org/2000/svg">
<g opacity="0.8">
<path d="M56.5422 13.8004C50.2328 13.8589 43.9383 15.929 38.7177 20.0067C50.2239 14.2239 64.6714 16.104 74.2719 25.7042C83.8722 35.3042 85.6802 49.6796 79.8972 61.186C88.8969 49.6645 88.1891 32.986 77.5894 22.3865C71.7928 16.59 64.1566 13.7303 56.542 13.8006L56.5422 13.8004ZM52.2844 23.6634C46.4781 23.729 40.6928 25.8986 36.1945 30.1743C45.5867 24.4861 58.0136 25.7446 66.1227 33.8532C74.2316 41.9623 75.4177 54.3182 69.7289 63.7104C78.5574 54.4229 78.4808 39.7207 69.368 30.6081C64.6692 25.9095 58.4652 23.5937 52.2844 23.6634ZM49.6891 32.9665C45.2666 32.9665 40.8444 34.6535 37.4703 38.0278C30.7219 44.7762 30.7219 55.7175 37.4703 62.4659C44.2185 69.2143 55.1594 69.2143 61.9078 62.4659C68.6563 55.7175 68.6563 44.7764 61.9078 38.0279C58.5338 34.6537 54.1114 32.9665 49.6891 32.9665ZM28.9649 37.404C20.1363 46.6915 20.2849 61.4657 29.3977 70.5784C38.5102 79.6914 53.2127 79.7674 62.5 70.939C53.1075 76.6281 40.7522 75.4424 32.6431 67.3331C24.5341 59.2237 23.276 46.7964 28.965 37.4042L28.9649 37.404ZM18.7964 39.9282C9.79689 51.4495 10.5766 68.2001 21.1761 78.7996C31.7758 89.3993 48.4542 90.1068 59.9761 81.1074C48.4695 86.8903 34.0938 85.0824 24.4938 75.4821C14.8938 65.8818 13.0135 51.434 18.7964 39.9279V39.9282Z" fill="black"/>
</g>
</svg>
