<svg width="100" height="100" viewBox="0 0 100 100" fill="none" xmlns="http://www.w3.org/2000/svg">
<g opacity="0.8">
<g clip-path="url(#clip0_154_577)">
<path d="M37.8835 43.3335L47.3335 36.6668H66.6669V43.3335H49.5202L40.0002 50.0001H16.6669V43.3335H37.8835ZM40.9369 60.2001L50.6869 56.6501L52.9669 62.9168L43.2169 66.4635C43.6758 70.1225 42.7708 73.8225 40.6747 76.8565C38.5785 79.8906 35.4381 82.0462 31.8533 82.9116C28.2685 83.7769 24.4906 83.2914 21.2411 81.5477C17.9916 79.804 15.4983 76.9244 14.2375 73.4589C12.9766 69.9934 13.0366 66.1849 14.4058 62.7608C15.7751 59.3366 18.3578 56.5369 21.6606 54.8964C24.9633 53.2558 28.7547 52.8894 32.3104 53.8672C35.8662 54.8449 38.9372 57.0982 40.9369 60.1968V60.2001ZM28.3335 76.6668C30.5437 76.6668 32.6633 75.7888 34.2261 74.226C35.7889 72.6632 36.6669 70.5436 36.6669 68.3335C36.6669 66.1233 35.7889 64.0037 34.2261 62.4409C32.6633 60.8781 30.5437 60.0001 28.3335 60.0001C26.1234 60.0001 24.0038 60.8781 22.441 62.4409C20.8782 64.0037 20.0002 66.1233 20.0002 68.3335C20.0002 70.5436 20.8782 72.6632 22.441 74.226C24.0038 75.7888 26.1234 76.6668 28.3335 76.6668ZM71.6669 83.3335C69.697 83.3335 67.7465 82.9455 65.9266 82.1916C64.1067 81.4378 62.4531 80.3329 61.0603 78.9401C59.6674 77.5472 58.5625 75.8936 57.8087 74.0737C57.0549 72.2538 56.6669 70.3033 56.6669 68.3335C56.6669 66.3636 57.0549 64.4131 57.8087 62.5932C58.5625 60.7733 59.6674 59.1197 61.0603 57.7269C62.4531 56.334 64.1067 55.2291 65.9266 54.4753C67.7465 53.7214 69.697 53.3335 71.6669 53.3335C75.6451 53.3335 79.4604 54.9138 82.2735 57.7269C85.0865 60.5399 86.6669 64.3552 86.6669 68.3335C86.6669 72.3117 85.0865 76.127 82.2735 78.9401C79.4604 81.7531 75.6451 83.3335 71.6669 83.3335ZM71.6669 76.6668C73.877 76.6668 75.9966 75.7888 77.5594 74.226C79.1222 72.6632 80.0002 70.5436 80.0002 68.3335C80.0002 66.1233 79.1222 64.0037 77.5594 62.4409C75.9966 60.8781 73.877 60.0001 71.6669 60.0001C69.4567 60.0001 67.3371 60.8781 65.7743 62.4409C64.2115 64.0037 63.3335 66.1233 63.3335 68.3335C63.3335 70.5436 64.2115 72.6632 65.7743 74.226C67.3371 75.7888 69.4567 76.6668 71.6669 76.6668ZM23.3335 46.6668H43.3335L52.0002 40.8901L52.9335 37.4035L59.3735 39.1301L52.9669 62.9001L46.8935 59.9401L47.2869 58.4735L40.0002 63.3335L36.6669 56.6668H23.3335V46.6668ZM63.6402 30.0001H76.6669V40.0001H67.2802L73.6802 57.5868L67.4135 59.8668L60.1869 40.0001H60.0002V39.4935L55.3335 26.6668H46.6669V20.0001H60.0002L63.6402 30.0001Z" fill="black"/>
</g>
</g>
<defs>
<clipPath id="clip0_154_577">
<rect width="80" height="80" fill="white" transform="translate(10 10)"/>
</clipPath>
</defs>
</svg>
