<svg width="100" height="100" viewBox="0 0 100 100" fill="none" xmlns="http://www.w3.org/2000/svg">
<g opacity="0.8">
<g clip-path="url(#clip0_154_617)">
<path d="M46.6667 16.6669L70.9933 24.2669C71.6718 24.4787 72.2648 24.9018 72.6858 25.4745C73.1068 26.0472 73.3336 26.7394 73.3333 27.4502V33.3335H80C80.8841 33.3335 81.7319 33.6847 82.357 34.3098C82.9821 34.935 83.3333 35.7828 83.3333 36.6669V63.3335C83.3333 64.2176 82.9821 65.0654 82.357 65.6906C81.7319 66.3157 80.8841 66.6669 80 66.6669L69.2667 66.6702C67.9767 68.3702 66.41 69.8702 64.6 71.1035L46.6667 83.3335L28.7333 71.1069C26.0417 69.2717 23.8392 66.8068 22.3171 63.9266C20.7951 61.0463 19.9997 57.8379 20 54.5802V27.4502C20.0004 26.74 20.2276 26.0485 20.6485 25.4765C21.0695 24.9045 21.6621 24.4818 22.34 24.2702L46.6667 16.6669ZM46.6667 23.6469L26.6667 29.9002V54.5802C26.6662 56.621 27.1342 58.6346 28.0345 60.466C28.9349 62.2974 30.2437 63.8977 31.86 65.1435L32.49 65.5969L46.6667 75.2669L59.2733 66.6669H43.3333C42.4493 66.6669 41.6014 66.3157 40.9763 65.6906C40.3512 65.0654 40 64.2176 40 63.3335V36.6669C40 35.7828 40.3512 34.935 40.9763 34.3098C41.6014 33.6847 42.4493 33.3335 43.3333 33.3335H66.6667V29.9002L46.6667 23.6469ZM46.6667 50.0002V60.0002H76.6667V50.0002H46.6667ZM46.6667 43.3335H76.6667V40.0002H46.6667V43.3335Z" fill="black"/>
</g>
</g>
<defs>
<clipPath id="clip0_154_617">
<rect width="80" height="80" fill="white" transform="translate(10 10)"/>
</clipPath>
</defs>
</svg>
