<svg width="100" height="100" viewBox="0 0 100 100" fill="none" xmlns="http://www.w3.org/2000/svg">
<g opacity="0.8">
<g clip-path="url(#clip0_154_612)">
<path d="M80.0007 36.6669C81.7688 36.6669 83.4645 37.3693 84.7147 38.6195C85.9649 39.8698 86.6673 41.5655 86.6673 43.3336V56.6669C86.6673 58.435 85.9649 60.1307 84.7147 61.3809C83.4645 62.6312 81.7688 63.3336 80.0007 63.3336H76.4607C75.648 69.7779 72.5115 75.7042 67.6398 80.0002C62.7681 84.2963 56.496 86.6668 50.0007 86.6669V80.0002C55.305 80.0002 60.3921 77.8931 64.1428 74.1424C67.8935 70.3917 70.0007 65.3046 70.0007 60.0002V40.0002C70.0007 34.6959 67.8935 29.6088 64.1428 25.8581C60.3921 22.1074 55.305 20.0002 50.0007 20.0002C44.6963 20.0002 39.6092 22.1074 35.8585 25.8581C32.1078 29.6088 30.0007 34.6959 30.0007 40.0002V63.3336H20.0007C18.2325 63.3336 16.5368 62.6312 15.2866 61.3809C14.0364 60.1307 13.334 58.435 13.334 56.6669V43.3336C13.334 41.5655 14.0364 39.8698 15.2866 38.6195C16.5368 37.3693 18.2325 36.6669 20.0007 36.6669H23.5407C24.3541 30.2232 27.4909 24.2978 32.3626 20.0025C37.2342 15.7072 43.5058 13.3372 50.0007 13.3372C56.4955 13.3372 62.7671 15.7072 67.6387 20.0025C72.5104 24.2978 75.6472 30.2232 76.4607 36.6669H80.0007ZM35.8673 62.6169L39.4007 56.9636C42.5776 58.9537 46.2519 60.0063 50.0007 60.0002C53.7494 60.0063 57.4237 58.9537 60.6007 56.9636L64.134 62.6169C59.8982 65.2707 54.9991 66.6746 50.0007 66.6669C45.0022 66.6746 40.1031 65.2707 35.8673 62.6169Z" fill="black"/>
</g>
</g>
<defs>
<clipPath id="clip0_154_612">
<rect width="80" height="80" fill="white" transform="translate(10 10)"/>
</clipPath>
</defs>
</svg>
