<svg width="120" height="120" viewBox="0 0 120 120" fill="none" xmlns="http://www.w3.org/2000/svg">
<g clip-path="url(#clip0_121_8)">
<path d="M87.1267 51C85.0314 50.9859 83.0345 51.3234 81.1642 51.9703L76.5377 44.25H88.1252C89.9955 44.25 91.5002 42.7453 91.5002 40.875V36.375C91.5002 34.5047 89.9955 33 88.1252 33H81.7549C80.7986 33 79.8845 33.4078 79.2517 34.1109L73.9783 39.975L70.772 34.6312C70.1533 33.6187 69.0564 33 67.8752 33H56.6252C55.3877 33 54.3752 34.0125 54.3752 35.25V37.5C54.3752 38.7375 55.3877 39.75 56.6252 39.75H65.9627L68.6627 44.25H47.0486C44.5595 41.0016 40.7345 38.625 33.0002 38.625H25.1955C23.297 38.625 21.708 40.1719 21.7502 42.0703C21.7783 43.8984 23.283 45.375 25.1252 45.375H33.0002C36.4455 45.375 38.4423 46.9078 39.722 48.8625L38.133 51.7453C36.3048 51.1969 34.3502 50.9438 32.3252 51.0141C22.8611 51.3516 15.2252 59.1 15.0002 68.5781C14.7752 78.7172 22.9173 87 33.0002 87C41.3814 87 48.4267 81.2625 50.4377 73.5H62.2783C64.2049 73.5 65.7377 71.8969 65.6533 69.9703C65.358 63.3469 68.1142 56.7937 73.5564 52.3922L75.3142 55.3172C71.433 58.65 68.972 63.6 69.0142 69.1266C69.0845 78.9141 77.058 86.9156 86.8455 87C96.9142 87.0984 105.099 78.9141 105.014 68.8453C104.916 59.0578 96.9142 51.0703 87.1267 51ZM33.0002 80.25C26.7986 80.25 21.7502 75.2016 21.7502 69C21.7502 62.7984 26.7986 57.75 33.0002 57.75C33.5908 57.75 34.1814 57.7922 34.758 57.8906L28.922 68.4937C27.6845 70.7437 29.3158 73.5 31.8752 73.5H43.308C41.5642 77.4656 37.5986 80.25 33.0002 80.25ZM98.2361 69.6187C97.9267 75.3281 93.3142 79.9406 87.6189 80.2359C81.1361 80.5875 75.7502 75.4125 75.7502 69C75.7502 65.9906 76.9314 63.2625 78.858 61.2516L85.8049 72.8391C86.4377 73.9078 87.8299 74.2453 88.8986 73.6125L90.8252 72.4594C91.8939 71.8266 92.2314 70.4344 91.5986 69.3656L84.7642 57.9891C85.4955 57.8344 86.2408 57.7641 87.0002 57.7641C93.4127 57.75 98.5736 63.1359 98.2361 69.6187Z" fill="#525E8B"/>
</g>
<defs>
<clipPath id="clip0_121_8">
<rect width="90" height="90" fill="white" transform="translate(15 15)"/>
</clipPath>
</defs>
</svg>
