<svg width="120" height="120" viewBox="0 0 120 120" fill="none" xmlns="http://www.w3.org/2000/svg">
<g clip-path="url(#clip0_120_5139)">
<g clip-path="url(#clip1_120_5139)">
<path d="M87.8999 19.7L69.2999 19.7" stroke="#525E8B" stroke-width="6.2" stroke-linecap="round" stroke-linejoin="round"/>
<path d="M59.9998 10.4C58.7785 10.4 57.5692 10.6406 56.4408 11.108C55.3125 11.5753 54.2873 12.2604 53.4237 13.1239C52.5601 13.9875 51.8751 15.0128 51.4077 16.1411C50.9404 17.2694 50.6998 18.4787 50.6998 19.7C50.6998 20.9213 50.9404 22.1307 51.4077 23.259C51.8751 24.3873 52.5601 25.4125 53.4237 26.2761C54.2873 27.1397 55.3125 27.8248 56.4408 28.2921C57.5692 28.7595 58.7785 29 59.9998 29C61.2211 29 62.4304 28.7595 63.5588 28.2921C64.6871 27.8248 65.7123 27.1397 66.5759 26.2761C67.4395 25.4125 68.1245 24.3873 68.5919 23.259C69.0593 22.1307 69.2998 20.9213 69.2998 19.7C69.2998 18.4787 69.0593 17.2694 68.5919 16.1411C68.1245 15.0128 67.4395 13.9875 66.5759 13.1239C65.7123 12.2604 64.6871 11.5753 63.5588 11.108C62.4304 10.6406 61.2211 10.4 59.9998 10.4Z" stroke="#525E8B" stroke-width="6.2" stroke-linecap="round" stroke-linejoin="round"/>
<path d="M50.6997 19.7L32.0997 19.7" stroke="#525E8B" stroke-width="6.2" stroke-linecap="round" stroke-linejoin="round"/>
</g>
<g clip-path="url(#clip2_120_5139)">
<path d="M52.7689 89.5492V64.7461H49.8254C47.7173 65.8699 45.6799 67.1215 43.7246 68.494V71.7258C45.4684 70.5307 48.2305 68.8428 49.5743 68.1127H49.6301V89.5492H52.7689ZM58.2931 83.481C58.5116 86.457 61.0552 90.0189 66.212 90.0189C72.0617 90.0189 75.512 85.062 75.512 76.6687C75.512 67.6756 71.8804 64.2625 66.4306 64.2625C62.1247 64.2625 58.0745 67.3873 58.0745 72.6744C58.0745 78.0684 61.9061 80.9049 65.8679 80.9049C69.3368 80.9049 71.5874 79.1565 72.2989 77.2314H72.4244C72.4058 83.3508 70.2808 87.294 66.3562 87.294C63.2686 87.294 61.669 85.2015 61.4737 83.481H58.2931ZM72.0245 72.7069C72.0245 75.9433 69.4252 78.1939 66.5189 78.1939C63.7243 78.1939 61.1993 76.413 61.1993 72.6139C61.1993 68.787 63.9056 66.9874 66.6305 66.9874C69.574 66.9874 72.0245 68.8381 72.0245 72.7069Z" fill="#525E8B"/>
<path d="M39.0748 35.2C39.6914 35.2 40.2828 35.445 40.7188 35.881C41.1548 36.317 41.3998 36.9084 41.3998 37.525V39.85H78.5998V37.525C78.5998 36.9084 78.8448 36.317 79.2808 35.881C79.7168 35.445 80.3082 35.2 80.9248 35.2C81.5414 35.2 82.1328 35.445 82.5688 35.881C83.0049 36.317 83.2498 36.9084 83.2498 37.525V39.85H87.8998C90.3663 39.85 92.7318 40.8299 94.4759 42.5739C96.22 44.318 97.1998 46.6835 97.1998 49.15V100.3C97.1998 102.767 96.22 105.132 94.4759 106.876C92.7318 108.62 90.3663 109.6 87.8998 109.6H32.0998C29.6333 109.6 27.2678 108.62 25.5237 106.876C23.7796 105.132 22.7998 102.767 22.7998 100.3V49.15C22.7998 46.6835 23.7796 44.318 25.5237 42.5739C27.2678 40.8299 29.6333 39.85 32.0998 39.85H36.7498V37.525C36.7498 36.9084 36.9948 36.317 37.4308 35.881C37.8668 35.445 38.4582 35.2 39.0748 35.2ZM27.4498 53.8V100.3C27.4498 101.533 27.9397 102.716 28.8118 103.588C29.6838 104.46 30.8665 104.95 32.0998 104.95H87.8998C89.1331 104.95 90.3158 104.46 91.1879 103.588C92.0599 102.716 92.5498 101.533 92.5498 100.3V53.8H27.4498Z" fill="#525E8B"/>
</g>
</g>
<defs>
<clipPath id="clip0_120_5139">
<rect width="120" height="120" rx="10" fill="white"/>
</clipPath>
<clipPath id="clip1_120_5139">
<rect width="31" height="55.8" fill="white" transform="translate(87.8999 4.20003) rotate(90)"/>
</clipPath>
<clipPath id="clip2_120_5139">
<rect width="74.4" height="74.4" fill="white" transform="translate(22.7998 35.2)"/>
</clipPath>
</defs>
</svg>
