<svg width="120" height="120" viewBox="0 0 120 120" fill="none" xmlns="http://www.w3.org/2000/svg">
<rect width="120" height="120" rx="10" fill="white"/>
<path d="M93.1869 22.7687L93.5756 22.7467L94.0523 22.776L94.3822 22.8347L94.8332 22.963L95.2256 23.1317L95.5923 23.3407L95.9222 23.5863L96.2229 23.8613L96.4136 24.0777L96.7143 24.503L96.9049 24.855C97.0773 25.2217 97.1873 25.6103 97.2349 26.0137L97.2532 26.4023C97.2532 26.6773 97.2239 26.9487 97.1652 27.209L97.0369 27.66L73.0863 93.9423C72.6322 94.9307 71.9041 95.7681 70.9883 96.355C70.0726 96.9419 69.0076 97.2537 67.9199 97.2533C66.9403 97.2564 65.9766 97.0058 65.1226 96.5258C64.2686 96.0458 63.5535 95.3528 63.0469 94.5143L62.8086 94.0487L50.5179 69.4747L26.0612 57.2427C25.1563 56.8288 24.3759 56.1846 23.7981 55.3745C23.2203 54.5643 22.8652 53.6167 22.7686 52.6263L22.7466 52.08C22.7466 50.0267 23.8502 48.1493 25.8302 47.0567L26.3436 46.8L92.4059 22.9447L92.7946 22.8347L93.1869 22.7687Z" fill="#525E8B"/>
</svg>
