<svg width="12" height="13" viewBox="0 0 12 13" fill="none" xmlns="http://www.w3.org/2000/svg">
<g clip-path="url(#clip0_154_399)">
<path d="M6.00011 0.875C5.06814 0.875 4.31261 1.63053 4.31261 2.5625C4.31261 3.49447 5.06814 4.25 6.00011 4.25C6.93207 4.25 7.68761 3.49447 7.68761 2.5625C7.68761 1.63053 6.93207 0.875 6.00011 0.875ZM6.00011 2C6.31077 2 6.56261 2.25184 6.56261 2.5625C6.56261 2.87316 6.31077 3.125 6.00011 3.125C5.68944 3.125 5.43761 2.87316 5.43761 2.5625C5.43761 2.25184 5.68944 2 6.00011 2ZM2.55409 2.84375C1.98423 2.85652 1.43458 3.15781 1.12876 3.6875C0.662779 4.49462 0.939083 5.52645 1.7462 5.99244C2.55332 6.45842 3.58588 6.18212 4.05186 5.375C4.51785 4.56788 4.24082 3.53605 3.4337 3.07006C3.15625 2.90989 2.85254 2.83709 2.55409 2.84375ZM9.36484 2.84375C9.09283 2.85078 8.81875 2.92445 8.56651 3.07006C7.7594 3.53605 7.48236 4.56788 7.94835 5.375C8.41433 6.18212 9.4469 6.45842 10.254 5.99244C11.0611 5.52645 11.3374 4.49462 10.8715 3.6875C10.5511 3.13262 9.96325 2.82821 9.36484 2.84375ZM2.57823 3.96875C2.67772 3.96652 2.77872 3.99078 2.8712 4.04422C3.14026 4.19952 3.23237 4.54344 3.07698 4.8125C2.92168 5.08156 2.57776 5.17367 2.3087 5.01828C2.03964 4.86298 1.94753 4.51906 2.10292 4.25C2.20483 4.07345 2.38829 3.97302 2.57823 3.96875ZM9.39489 3.96875C9.59434 3.96359 9.79051 4.06503 9.89732 4.25C10.0527 4.51906 9.9606 4.86298 9.69154 5.01828C9.42247 5.17367 9.07855 5.08156 8.92325 4.8125C8.76786 4.54344 8.85997 4.19952 9.12904 4.04422C9.21311 3.99566 9.30421 3.97109 9.39489 3.96875ZM6.03306 5.3757C5.88263 5.37129 5.73285 5.39711 5.59258 5.45163C5.45231 5.50614 5.3244 5.58825 5.21643 5.69308C5.10846 5.79792 5.02262 5.92335 4.96399 6.06195C4.90536 6.20055 4.87514 6.34951 4.87511 6.5C4.87511 6.79837 4.99363 7.08452 5.20461 7.2955C5.41559 7.50647 5.70174 7.625 6.00011 7.625C6.29847 7.625 6.58462 7.50647 6.7956 7.2955C7.00658 7.08452 7.12511 6.79837 7.12511 6.5C7.12505 6.20738 7.01098 5.92629 6.80709 5.71638C6.60321 5.50648 6.32556 5.38427 6.03306 5.3757ZM2.54453 6.78125C2.27251 6.78828 1.99843 6.86195 1.7462 7.00756C0.939083 7.47355 0.662779 8.50538 1.12876 9.3125C1.59475 10.1196 2.62658 10.3959 3.4337 9.92994C4.24082 9.46395 4.51785 8.43212 4.05186 7.625C3.73147 7.07012 3.14296 6.76571 2.54453 6.78125ZM9.37363 6.78125C8.80382 6.79402 8.25416 7.09531 7.94835 7.625C7.48236 8.43212 7.7594 9.46395 8.56651 9.92994C9.37363 10.3959 10.4055 10.1196 10.8715 9.3125C11.3374 8.50538 11.0611 7.47355 10.254 7.00756C9.97656 6.84739 9.67213 6.77459 9.37363 6.78125ZM2.5753 7.90625C2.77476 7.90109 2.97022 8.00253 3.07701 8.1875C3.2324 8.45656 3.14029 8.80048 2.87122 8.95578C2.60216 9.11117 2.25824 9.01906 2.10294 8.75C1.94755 8.48094 2.03966 8.13702 2.30872 7.98172C2.39279 7.93316 2.48462 7.90859 2.5753 7.90625ZM9.39782 7.90625C9.49729 7.90402 9.599 7.92828 9.69149 7.98172C9.96055 8.13702 10.0527 8.48094 9.89727 8.75C9.74197 9.01906 9.39805 9.11117 9.12899 8.95578C8.85993 8.80048 8.76782 8.45656 8.92321 8.1875C9.02511 8.01095 9.20786 7.91052 9.39782 7.90625ZM6.00011 8.75C5.06814 8.75 4.31261 9.50553 4.31261 10.4375C4.31261 11.3695 5.06814 12.125 6.00011 12.125C6.93207 12.125 7.68761 11.3695 7.68761 10.4375C7.68761 9.50553 6.93207 8.75 6.00011 8.75ZM6.00011 9.875C6.31077 9.875 6.56261 10.1268 6.56261 10.4375C6.56261 10.7482 6.31077 11 6.00011 11C5.68944 11 5.43761 10.7482 5.43761 10.4375C5.43761 10.1268 5.68944 9.875 6.00011 9.875Z" fill="black"/>
</g>
<defs>
<clipPath id="clip0_154_399">
<rect y="0.5" width="12" height="12" fill="white"/>
</clipPath>
</defs>
</svg>
